# AST/ASF file generated using VICON BodyLanguage
# -----------------------------------------------
:version 1.10
:name VICON
:units
  mass 1.0
  length 0.45
  angle deg
:documentation
   .ast/.asf automatically generated from VICON data using
   VICON BodyBuilder and BodyLanguage model FoxedUp or BRILLIANT.MOD
:root
   order TX TY TZ RX RY RZ
   axis XYZ
   position 0 0 0  
   orientation 0 0 0 
:bonedata
  begin
     id 1 
     name lhipjoint
     direction 0.722297 -0.617336 0.311742 
     length 2.6635 
     axis 0 0 0  XYZ
  end
  begin
     id 2 
     name lfemur
     direction 0.34202 -0.939693 0  
     length 7.39349  
     axis 0 0 20  XYZ
    dof rx ry rz
    limits (-160.0 20.0)
           (-70.0 70.0)
           (-60.0 70.0)
  end
  begin
     id 3 
     name ltibia
     direction 0.34202 -0.939693 0   
     length 7.36294   
     axis 0 0 20   XYZ
    dof rx
    limits (-10.0 170.0)
  end
  begin
     id 4 
     name lfoot
     direction 0.104879 -0.288152 0.951824   
     length 2.16981   
     axis -90 7.62852e-016 20   XYZ
    dof rx rz
    limits (-45.0 90.0)
           (-70.0 20.0)
  end
  begin
     id 5 
     name ltoes
     direction 1.53586e-011 -4.21895e-011 1   
     length 1.08218   
     axis -90 7.62852e-016 20   XYZ
    dof rx
    limits (-90.0 20.0)
  end
  begin
     id 6 
     name rhipjoint
     direction -0.75102 -0.589393 0.297631   
     length 2.78977  
     axis 0 0 0  XYZ 
  end
  begin
     id 7 
     name rfemur
     direction -0.34202 -0.939693 0   
     length 7.46076   
     axis 0 0 -20   XYZ
    dof rx ry rz
    limits (-160.0 20.0)
           (-70.0 70.0)
           (-70.0 60.0)
  end
  begin
     id 8 
     name rtibia
     direction -0.34202 -0.939693 0   
     length 7.31726   
     axis 0 0 -20   XYZ
    dof rx
    limits (-10.0 170.0)
 end
 begin
     id 9 
     name rfoot
     direction -0.107991 -0.296704 0.948844   
     length 2.09388  
     axis -90 -7.62852e-016 -20   XYZ
    dof rx rz
    limits (-45.0 90.0)
           (-20.0 70.0)
  end
  begin
     id 10 
     name rtoes
     direction -1.53559e-011 -4.21911e-011 1   
     length 1.04433   
     axis -90 -7.62852e-016 -20   XYZ
    dof rx
    limits (-90.0 20.0)
  end
  begin
     id 11 
     name lowerback
     direction 0.0165164 0.98272 0.184358   
     length 1.71896   
     axis 0 0 0   XYZ
    dof rx ry rz
    limits (-20.0 45.0)
           (-30.0 30.0)
           (-30.0 30.0)
  end
  begin
     id 12 
     name upperback
     direction -0.00887249 0.992297 0.123566   
     length 1.71504   
     axis 0 0 0   XYZ
    dof rx ry rz
    limits (-20.0 45.0)
           (-30.0 30.0)
           (-30.0 30.0)
  end
  begin
     id 13 
     name thorax
     direction -0.0157026 0.998908 0.0440032   
     length 1.77022   
     axis 0 0 0   XYZ
    dof rx ry rz
    limits (-20.0 45.0)
           (-30.0 30.0)
           (-30.0 30.0)
  end
  begin
     id 14 
     name lowerneck
     direction -0.0238856 0.998137 0.0561411   
     length 1.89341   
     axis 0 0 0   XYZ
    dof rx ry rz
    limits (-20.0 45.0)
           (-30.0 30.0)
           (-30.0 30.0)
  end
  begin
     id 15 
     name upperneck
     direction 0.0276574 0.952253 -0.304056   
     length 1.86999   
     axis 0 0 0   XYZ
    dof rx ry rz
    limits (-20.0 45.0)
           (-30.0 30.0)
           (-30.0 30.0)
  end
  begin
     id 16
     name head
     direction 0.00800083 0.994258 -0.106712  
     length 1.91492  
     axis 0 0 0   XYZ
    dof rx ry rz
    limits (-20.0 45.0)
           (-30.0 30.0)
           (-30.0 30.0)
  end
  begin
     id 17 
     name lclavicle
     direction 0.97203 0.225407 0.06595  
     length 3.34889  
     axis 0 0 0   XYZ
    dof ry rz
    limits (-20.0 10.0)
           (0.0 20.0)
  end
  begin
     id 18 
     name lhumerus
     direction 1 -4.48973e-011 2.20267e-027   
     length 4.85645   
     axis 180 -30 -90   XYZ
    dof rx ry rz
    limits (-60.0 90.0)
           (-90.0 90.0)
           (-90.0 90.0)
  end
  begin
     id 19
     name lradius
     direction 1 -4.4897e-011 4.60472e-027   
     length 2.79874   
     axis 180 -30 -90   XYZ
    dof rx
    limits (-10.0 170.0)
  end
  begin
     id 20
     name lwrist
     direction 1 -4.48952e-011 1.14928e-026   
     length 1.39937   
     axis -6.29373e-015 90 90   XYZ
    dof ry
    limits (-180.0 0.0)
 end
  begin
     id 21 
     name lhand
     direction 1 -4.48967e-011 2.29886e-026   
     length 0.573398   
     axis -1.46689e-014 90 90   XYZ
    dof rx rz
    limits (-90.0 90.0)
           (-45.0 45.0)
  end
  begin
     id 22 
     name lfingers
     direction 1 -4.48955e-011 4.59726e-026   
     length 0.462289   
     axis -2.93383e-014 90 90   XYZ
    dof rx
    limits (0.0 90.0)
  end
  begin
     id 23
     name lthumb
     direction 0.707107 -6.34866e-011 0.707107   
     length 0.663757   
     axis -90 45 5.69224e-014   XYZ
    dof rx rz
    limits (-45.0 45.0)
           (-45.0 45.0)
  end
  begin
     id 24 
     name rclavicle
     direction -0.981571 0.157346 0.108443   
     length 3.35257  
     axis 0 0 0   XYZ 
    dof ry rz
    limits (-10.0 20.0)
           (-20.0 0.0)
  end
  begin
     id 25 
     name rhumerus
     direction -1 -4.48967e-011 8.58308e-029  
     length 4.67018   
     axis 180 30 90   XYZ
    dof rx ry rz
    limits (-90.0 60.0)
           (-90.0 90.0)
           (-90.0 90.0)
  end
  begin
     id 26 
     name rradius
     direction -1 -4.48958e-011 4.52548e-027   
     length 2.65534   
     axis 180 30 90   XYZ
    dof rx
    limits (-10.0 170.0)
  end
  begin
     id 27 
     name rwrist
     direction -1 -4.48977e-011 1.14952e-026   
     length 1.32767   
     axis -6.29373e-015 -90 -90   XYZ
    dof ry
    limits (-180.0 0.0)
  end
  begin
     id 28
     name rhand
     direction -1 -4.48924e-011 2.29804e-026   
     length 0.594069   
     axis -1.46689e-014 -90 -90   XYZ
    dof rx rz
    limits (-90.0 90.0)
           (-45.0 45.0)
  end
  begin
     id 29
     name rfingers
     direction -1 -4.48998e-011 4.59888e-026   
     length 0.478954   
     axis -2.93383e-014 -90 -90   XYZ
    dof rx
    limits (0.0 90.0)
  end
  begin
     id 30
     name rthumb
     direction -0.707107 -6.34933e-011 0.707107   
     length 0.687685   
     axis -90 -45 -5.69224e-014   XYZ
    dof rx rz
    limits (-45.0 45.0)
           (-45.0 45.0)
  end
:hierarchy
  begin
    root lhipjoint rhipjoint lowerback
    lhipjoint lfemur
    lfemur ltibia
    ltibia lfoot
    lfoot ltoes
    rhipjoint rfemur
    rfemur rtibia
    rtibia rfoot
    rfoot rtoes
    lowerback upperback
    upperback thorax
    thorax lowerneck lclavicle rclavicle
    lowerneck upperneck
    upperneck head
    lclavicle lhumerus
    lhumerus lradius
    lradius lwrist
    lwrist lhand lthumb
    lhand lfingers
    rclavicle rhumerus
    rhumerus rradius
    rradius rwrist
    rwrist rhand rthumb
    rhand rfingers
  end

#!OML:ASF E:\pregnant2\Project 1\Capture day 1\Session 1\pregnant2.ASF
:FULLY-SPECIFIED
:DEGREES
649
root -3.45275 16.9718 29.0107 -331.27 -0.473418 359.985
lowerback -16.5597 -0.519254 -3.48477
upperback -13.2291 -0.256284 0.993594
thorax -4.92052 0.178436 2.98092
lowerneck -10.6634 -5.3438 -8.44102
upperneck 49.9342 -6.4744 0.451538
head 23.824 -4.07838 0.459881
rclavicle 9.01985e-015 -3.77691e-015
rhumerus -45.8081 13.6332 -78.9522
rradius 42.4164
rwrist 5.40771
rhand -13.1108 -14.3946
rfingers 7.12502
rthumb 192.986 136.03
lclavicle 9.01985e-015 -3.77691e-015
lhumerus -46.4702 11.1622 73.9573
lradius 31.0285
lwrist 0.882858
lhand -13.8803 32.5314
lfingers 7.12502
lthumb 192.245 -117.847
rfemur -32.1688 3.70854 18.6496
rtibia 47.4007
rfoot -10.5449 -8.87184
rtoes -9.02428
lfemur -51.7713 -11.4777 -14.9139
ltibia 28.3686
lfoot -1.66678 11.0337
ltoes -14.3305
650
root -3.41085 16.9775 29.1092 -331.286 -0.782975 360.127
lowerback -16.5077 -0.49336 -3.58141
upperback -13.1853 -0.214539 0.985434
thorax -4.9032 0.204278 3.03159
lowerneck -10.6898 -5.3639 -8.40667
upperneck 49.9189 -6.5459 0.483876
head 23.8253 -4.09441 0.454569
rclavicle 1.49089e-015 4.47266e-015
rhumerus -45.8218 13.2408 -78.8113
rradius 41.6864
rwrist 5.71277
rhand -12.6649 -14.1913
rfingers 7.12502
rthumb 193.416 136.261
lclavicle 1.49089e-015 4.47266e-015
lhumerus -45.9232 10.7581 74.4426
lradius 31.6012
lwrist 1.70802
lhand -14.3667 32.7121
lfingers 7.12502
lthumb 191.775 -117.639
rfemur -33.196 2.9462 18.5417
rtibia 49.4164
rfoot -8.80961 -8.85858
rtoes -7.29786
lfemur -51.3471 -11.3873 -15.4388
ltibia 28.4556
lfoot -2.14733 11.1259
ltoes -14.2344
651
root -3.37094 16.9818 29.2061 -331.286 -1.07593 360.27
lowerback -16.4628 -0.479717 -3.68719
upperback -13.1491 -0.18782 0.97468
thorax -4.88974 0.223222 3.08287
lowerneck -10.6972 -5.36999 -8.34634
upperneck 49.9018 -6.61149 0.529655
head 23.814 -4.10205 0.454233
rclavicle -7.78987e-015 -9.93923e-016
rhumerus -45.8472 12.8487 -78.6797
rradius 40.996
rwrist 6.03236
rhand -12.2042 -13.9739
rfingers 7.12502
rthumb 193.86 136.508
lclavicle -7.78987e-015 -9.93923e-016
lhumerus -45.3871 10.296 74.9221
lradius 32.2023
lwrist 2.52648
lhand -14.7666 32.8143
lfingers 7.12502
lthumb 191.39 -117.515
rfemur -34.2643 2.23398 18.4514
rtibia 51.3897
rfoot -7.15106 -9.02353
rtoes -5.33557
lfemur -50.9477 -11.2062 -16.0131
ltibia 28.5473
lfoot -2.65221 11.1069
ltoes -14.1826
652
root -3.33285 16.9856 29.3017 -331.272 -1.33969 360.404
lowerback -16.4261 -0.478156 -3.78774
upperback -13.1207 -0.177407 0.965088
thorax -4.87959 0.233767 3.13053
lowerneck -10.681 -5.36401 -8.265
upperneck 49.8833 -6.66972 0.582521
head 23.7882 -4.10252 0.45665
rclavicle -2.64632e-015 -1.39149e-015
rhumerus -45.8977 12.4623 -78.5606
rradius 40.3578
rwrist 6.35325
rhand -11.7498 -13.7626
rfingers 7.12502
rthumb 194.298 136.75
lclavicle -2.64632e-015 -1.39149e-015
lhumerus -44.8604 9.7634 75.4028
lradius 32.8329
lwrist 3.35191
lhand -15.0932 32.8512
lfingers 7.12502
lthumb 191.075 -117.461
rfemur -35.3498 1.56014 18.3935
rtibia 53.2904
rfoot -5.71607 -9.36249
rtoes -3.4766
lfemur -50.5631 -10.9517 -16.6156
ltibia 28.6274
lfoot -3.16983 10.9864
ltoes -14.1642
653
root -3.29648 16.9898 29.3965 -331.248 -1.57164 360.529
lowerback -16.4038 -0.48749 -3.8773
upperback -13.0949 -0.182037 0.956363
thorax -4.86333 0.235842 3.17115
lowerneck -10.6579 -5.35466 -8.17649
upperneck 49.8602 -6.73355 0.651492
head 23.7561 -4.10205 0.465951
rclavicle -3.83903e-015 -1.98785e-016
rhumerus -45.979 12.0747 -78.4546
rradius 39.7842
rwrist 6.67711
rhand -11.327 -13.5794
rfingers 7.12502
rthumb 194.706 136.962
lclavicle -3.83903e-015 -1.98785e-016
lhumerus -44.3348 9.1624 75.8823
lradius 33.4926
lwrist 4.17279
lhand -15.3303 32.8489
lfingers 7.12502
lthumb 190.846 -117.451
rfemur -36.433 0.917082 18.3758
rtibia 55.0975
rfoot -4.66078 -9.83349
rtoes -2.00171
lfemur -50.1829 -10.642 -17.2329
ltibia 28.6828
lfoot -3.68762 10.7835
ltoes -14.1821
654
root -3.26165 16.9949 29.4906 -331.216 -1.77253 360.647
lowerback -16.3883 -0.50727 -3.95602
upperback -13.0754 -0.201458 0.947452
thorax -4.84921 0.229775 3.20374
lowerneck -10.6326 -5.34719 -8.09087
upperneck 49.8337 -6.81062 0.741215
head 23.7235 -4.1049 0.484615
rclavicle -2.96935e-015 1.98785e-016
rhumerus -46.1073 11.693 -78.3682
rradius 39.2852
rwrist 6.98978
rhand -10.9494 -13.436
rfingers 7.12502
rthumb 195.069 137.132
lclavicle -2.96935e-015 1.98785e-016
lhumerus -43.8229 8.50177 76.3503
lradius 34.1833
lwrist 4.96534
lhand -15.46 32.8404
lfingers 7.12502
lthumb 190.721 -117.453
rfemur -37.5037 0.30378 18.3952
rtibia 56.7926
rfoot -4.06323 -10.3976
rtoes -0.9269
lfemur -49.7981 -10.3031 -17.8526
ltibia 28.7029
lfoot -4.19202 10.5295
ltoes -14.2248
655
root -3.22814 17.0011 29.5839 -331.178 -1.94565 360.754
lowerback -16.3735 -0.533092 -4.0168
upperback -13.0628 -0.230922 0.938761
thorax -4.84123 0.217583 3.22527
lowerneck -10.6057 -5.34293 -8.01241
upperneck 49.8044 -6.90021 0.84916
head 23.6918 -4.1119 0.512106
rclavicle -2.09966e-015 -1.49089e-014
rhumerus -46.2808 11.3093 -78.297
rradius 38.8594
rwrist 7.29106
rhand -10.6381 -13.3323
rfingers 7.12502
rthumb 195.369 137.259
lclavicle -2.09966e-015 -1.49089e-014
lhumerus -43.3254 7.79665 76.8002
lradius 34.9058
lwrist 5.69935
lhand -15.4779 32.8493
lfingers 7.12502
lthumb 190.704 -117.443
rfemur -38.5627 -0.272302 18.4535
rtibia 58.3648
rfoot -3.87917 -11.0232
rtoes -0.191111
lfemur -49.4112 -9.96049 -18.4528
ltibia 28.6885
lfoot -4.67307 10.2577
ltoes -14.2729
656
root -3.19566 17.0085 29.6766 -331.135 -2.09586 360.852
lowerback -16.358 -0.562044 -4.05534
upperback -13.0588 -0.267211 0.929491
thorax -4.84224 0.20064 3.23288
lowerneck -10.5792 -5.344 -7.9422
upperneck 49.776 -7.00266 0.969423
head 23.6652 -4.12407 0.544997
rclavicle -9.01985e-015 3.97569e-016
rhumerus -46.5032 10.9273 -78.2452
rradius 38.4997
rwrist 7.56254
rhand -10.4216 -13.2611
rfingers 7.12502
rthumb 195.578 137.346
lclavicle -9.01985e-015 3.97569e-016
lhumerus -42.8448 7.07637 77.2158
lradius 35.6387
lwrist 6.33486
lhand -15.3947 32.8484
lfingers 7.12502
lthumb 190.784 -117.448
rfemur -39.6069 -0.799823 18.5456
rtibia 59.8026
rfoot -3.99827 -11.6733
rtoes 0.336786
lfemur -49.0231 -9.64187 -19.0147
ltibia 28.6457
lfoot -5.12553 10.0036
ltoes -14.3218
657
root -3.16413 17.0162 29.7683 -331.089 -2.23154 360.932
lowerback -16.3331 -0.589235 -4.06624
upperback -13.0647 -0.304893 0.921319
thorax -4.85872 0.181546 3.22596
lowerneck -10.5586 -5.35103 -7.8842
upperneck 49.7478 -7.11821 1.10404
head 23.6463 -4.14193 0.584936
rclavicle -5.00689e-015 -1.41137e-014
rhumerus -46.7628 10.5385 -78.2041
rradius 38.1958
rwrist 7.79831
rhand -10.2576 -13.2351
rfingers 7.12502
rthumb 195.736 137.385
lclavicle -5.00689e-015 -1.41137e-014
lhumerus -42.3905 6.37086 77.5865
lradius 36.3834
lwrist 6.84359
lhand -15.2189 32.8164
lfingers 7.12502
lthumb 190.954 -117.489
rfemur -40.6449 -1.25951 18.6679
rtibia 61.102
rfoot -4.26287 -12.302
rtoes 0.817271
lfemur -48.6473 -9.37051 -19.5138
ltibia 28.5947
lfoot -5.54503 9.80717
ltoes -14.3479
658
root -3.13342 17.024 29.8592 -331.04 -2.35653 360.989
lowerback -16.2943 -0.610567 -4.03614
upperback -13.081 -0.340325 0.913285
thorax -4.89366 0.16117 3.19643
lowerneck -10.5343 -5.36112 -7.83725
upperneck 49.7185 -7.23915 1.24569
head 23.628 -4.16344 0.629696
rclavicle -9.31803e-016 -9.93923e-016
rhumerus -47.0657 10.1494 -78.179
rradius 37.9478
rwrist 7.96662
rhand -10.176 -13.2444
rfingers 7.12502
rthumb 195.814 137.381
lclavicle -9.31803e-016 -9.93923e-016
lhumerus -41.9639 5.68494 77.9087
lradius 37.1319
lwrist 7.23363
lhand -14.9778 32.7143
lfingers 7.12502
lthumb 191.186 -117.604
rfemur -41.672 -1.63137 18.8185
rtibia 62.2568
rfoot -4.54442 -12.8707
rtoes 1.28432
lfemur -48.2943 -9.16109 -19.9328
ltibia 28.5602
lfoot -5.94078 9.6902
ltoes -14.3528
659
root -3.10352 17.0304 29.9491 -330.982 -2.47463 361.016
lowerback -16.2608 -0.624033 -3.96506
upperback -13.1011 -0.36979 0.909358
thorax -4.9301 0.141077 3.14896
lowerneck -10.5093 -5.37195 -7.79216
upperneck 49.6864 -7.35929 1.38535
head 23.6071 -4.18534 0.673799
rclavicle 4.08751e-015 1.45113e-014
rhumerus -47.3955 9.7552 -78.1618
rradius 37.7419
rwrist 8.09072
rhand -10.1795 -13.2708
rfingers 7.12502
rthumb 195.811 137.355
lclavicle 4.08751e-015 1.45113e-014
lhumerus -41.5401 5.04083 78.1829
lradius 37.8575
lwrist 7.50376
lhand -14.6907 32.5302
lfingers 7.12502
lthumb 191.463 -117.803
rfemur -42.6952 -1.90767 18.9991
rtibia 63.2686
rfoot -4.8051 -13.3345
rtoes 1.61934
lfemur -47.9866 -9.01379 -20.261
ltibia 28.5706
lfoot -6.31925 9.66213
ltoes -14.3399
660
root -3.07452 17.0348 30.0379 -330.917 -2.58738 361.009
lowerback -16.2308 -0.628472 -3.85126
upperback -13.1238 -0.391934 0.910169
thorax -4.96776 0.121797 3.08337
lowerneck -10.4823 -5.38166 -7.7439
upperneck 49.6487 -7.47428 1.51782
head 23.5784 -4.2056 0.714428
rclavicle -3.11843e-015 -3.97569e-016
rhumerus -47.7472 9.3692 -78.1576
rradius 37.5689
rwrist 8.1533
rhand -10.2541 -13.2948
rfingers 7.12502
rthumb 195.739 137.325
lclavicle -3.11843e-015 -3.97569e-016
lhumerus -41.1147 4.44496 78.4091
lradius 38.5478
lwrist 7.66936
lhand -14.3891 32.2454
lfingers 7.12502
lthumb 191.754 -118.104
rfemur -43.7134 -2.09156 19.2089
rtibia 64.1401
rfoot -5.0283 -13.6817
rtoes 1.71711
lfemur -47.7322 -8.91223 -20.5067
ltibia 28.6458
lfoot -6.69582 9.70873
ltoes -14.3102
661
root -3.04652 17.0366 30.1258 -330.848 -2.69823 360.972
lowerback -16.2035 -0.623663 -3.70374
upperback -13.1452 -0.405342 0.916218
thorax -5.00298 0.10457 3.00542
lowerneck -10.4547 -5.39127 -7.69851
upperneck 49.6004 -7.58661 1.6502
head 23.5391 -4.22541 0.756181
rclavicle -3.47873e-015 -2.10712e-014
rhumerus -48.1038 8.98311 -78.1574
rradius 37.413
rwrist 8.17846
rhand -10.3725 -13.3219
rfingers 7.12502
rthumb 195.625 137.289
lclavicle -3.47873e-015 -2.10712e-014
lhumerus -40.6861 3.89591 78.5976
lradius 39.2073
lwrist 7.75975
lhand -14.0856 31.8957
lfingers 7.12502
lthumb 192.047 -118.471
rfemur -44.7178 -2.19612 19.4447
rtibia 64.875
rfoot -5.25194 -13.892
rtoes 1.53748
lfemur -47.5294 -8.83715 -20.6888
ltibia 28.7997
lfoot -7.08482 9.81061
ltoes -14.2748
662
root -3.01963 17.0359 30.213 -330.778 -2.81092 360.918
lowerback -16.1806 -0.612667 -3.53931
upperback -13.1635 -0.412124 0.923631
thorax -5.03293 0.0892945 2.92017
lowerneck -10.4287 -5.40131 -7.65337
upperneck 49.5397 -7.69813 1.78332
head 23.4886 -4.24478 0.798495
rclavicle -1.38155e-014 1.07344e-014
rhumerus -48.4638 8.60027 -78.163
rradius 37.2728
rwrist 8.17532
rhand -10.5267 -13.3429
rfingers 7.12502
rthumb 195.476 137.257
lclavicle -1.38155e-014 1.07344e-014
lhumerus -40.2544 3.39544 78.7489
lradius 39.8429
lwrist 7.78682
lhand -13.7643 31.5615
lfingers 7.12502
lthumb 192.356 -118.824
rfemur -45.7076 -2.24267 19.6934
rtibia 65.4789
rfoot -5.50183 -13.9527
rtoes 1.18174
lfemur -47.3728 -8.76444 -20.8406
ltibia 29.0309
lfoot -7.49692 9.93767
ltoes -14.2402
